<?xml version="1.0" standalone="no"?>
<!DOCTYPE svg PUBLIC "-//W3C//DTD SVG 20010904//EN"
 "http://www.w3.org/TR/2001/REC-SVG-20010904/DTD/svg10.dtd">
<svg version="1.0" xmlns="http://www.w3.org/2000/svg"
 width="512.000000pt" height="512.000000pt" viewBox="0 0 512.000000 512.000000"
 preserveAspectRatio="xMidYMid meet">
<metadata>
Created by potrace 1.14, written by Peter Selinger 2001-2017
</metadata>
<g transform="translate(0.000000,512.000000) scale(0.100000,-0.100000)"
fill="#000000" stroke="none">
<path d="M2305 4625 c-474 -62 -892 -269 -1227 -608 -271 -274 -450 -600 -543
-987 -26 -107 -29 -130 -44 -260 -9 -78 -8 -451 1 -466 3 -5 9 -29 12 -54 27
-195 91 -401 191 -605 205 -423 547 -761 977 -965 156 -73 384 -147 513 -165
22 -3 65 -11 95 -16 113 -22 461 -19 595 5 17 3 48 8 70 12 22 3 43 8 46 10 3
2 21 6 40 9 109 19 305 89 454 164 339 168 622 422 829 743 31 48 56 89 56 92
0 2 18 35 39 75 22 39 37 71 34 71 -3 0 -1 6 5 13 42 51 147 399 172 572 15
102 21 407 9 505 -13 116 -25 192 -35 219 -2 8 -7 30 -10 50 -11 75 -100 319
-160 440 -234 475 -640 843 -1129 1026 -121 45 -338 102 -420 111 -33 4 -64 9
-69 12 -20 12 -404 9 -501 -3z m450 -316 c33 -5 80 -11 105 -15 25 -3 48 -8
51 -10 3 -2 21 -6 40 -9 62 -10 202 -56 299 -97 356 -151 652 -417 846 -759
72 -129 160 -358 179 -468 3 -19 8 -37 10 -40 2 -4 6 -24 9 -46 36 -238 29
-483 -17 -690 -93 -410 -331 -776 -667 -1026 -119 -89 -200 -135 -373 -213
-86 -39 -278 -94 -387 -111 -25 -4 -54 -10 -65 -12 -38 -9 -360 -11 -425 -2
-450 61 -809 247 -1110 576 -233 253 -396 614 -439 973 -9 79 -7 381 4 440 42
233 86 373 170 542 187 377 491 664 880 833 163 71 296 106 500 134 72 10 320
10 390 0z"/>
<path d="M3378 3187 c-23 -10 -160 -135 -378 -347 -31 -30 -132 -127 -225
-215 -92 -88 -213 -203 -269 -256 -210 -201 -231 -219 -242 -217 -7 2 -88 75
-181 164 -346 331 -326 315 -391 319 -59 4 -104 -16 -140 -63 -31 -41 -38
-112 -16 -159 9 -17 83 -95 166 -174 83 -79 188 -179 232 -222 249 -241 270
-257 334 -257 62 0 84 18 482 400 37 36 110 105 161 154 200 189 488 465 580
556 104 102 117 130 103 206 -17 89 -132 148 -216 111z"/>
</g>
</svg>
